<?xml version="1.0" standalone="no"?>
<!DOCTYPE svg PUBLIC "-//W3C//DTD SVG 20010904//EN"
 "http://www.w3.org/TR/2001/REC-SVG-20010904/DTD/svg10.dtd">
<svg version="1.0" xmlns="http://www.w3.org/2000/svg"
 width="420.000000pt" height="400.000000pt" viewBox="0 0 420.000000 400.000000"
 preserveAspectRatio="xMidYMid meet">

<g transform="translate(0.000000,400.000000) scale(0.100000,-0.100000)"
fill="#000000" stroke="none">
<path d="M1915 3834 c-22 -3 -89 -14 -148 -25 -582 -108 -1076 -549 -1253
-1119 l-27 -87 -81 -6 c-194 -14 -322 -93 -357 -221 -8 -27 -10 -95 -6 -201
12 -320 68 -508 191 -642 93 -102 183 -133 393 -133 104 0 271 15 281 25 2 2
-17 39 -41 82 -229 397 -246 881 -47 1297 130 273 379 523 653 656 198 95 374
134 607 134 183 0 276 -14 433 -65 355 -115 667 -389 827 -725 199 -416 182
-900 -47 -1297 -24 -43 -43 -80 -41 -82 10 -10 177 -25 281 -25 210 0 300 31
393 133 123 134 179 322 191 642 4 106 2 174 -6 201 -35 128 -163 207 -357
221 l-81 6 -27 87 c-177 570 -663 1004 -1252 1120 -106 21 -378 34 -479 24z"/>
<path d="M1830 3371 c-47 -11 -98 -24 -113 -30 l-29 -11 7 -120 c4 -66 4 -120
0 -120 -4 0 -47 36 -96 81 l-88 80 -39 -20 c-36 -18 -202 -138 -202 -146 0 -1
23 -51 50 -110 28 -59 50 -111 50 -116 0 -4 -52 10 -117 33 l-116 42 -27 -33
c-35 -42 -120 -191 -120 -211 0 -8 41 -51 91 -94 64 -56 87 -81 78 -86 -8 -4
-59 -11 -114 -14 -55 -4 -107 -9 -117 -12 -19 -6 -38 -100 -41 -213 l-2 -74
117 -36 c64 -20 119 -39 123 -42 3 -4 -46 -35 -109 -70 l-115 -64 6 -35 c9
-56 61 -210 91 -270 l27 -55 527 -177 528 -176 530 176 529 177 35 77 c36 76
86 235 86 268 0 12 -35 37 -114 81 -63 35 -112 67 -108 71 4 3 61 23 126 43
l119 37 -6 86 c-3 48 -11 112 -18 144 l-11 56 -98 7 c-53 4 -112 10 -130 14
l-33 6 84 75 c46 40 90 79 97 85 10 9 6 23 -19 71 -42 80 -112 184 -124 184
-5 0 -59 -16 -118 -36 -60 -20 -110 -34 -113 -32 -2 3 19 54 46 114 l51 109
-38 33 c-56 48 -191 134 -202 130 -6 -1 -48 -38 -95 -80 -46 -43 -88 -78 -91
-78 -4 0 -4 54 0 120 l7 120 -28 11 c-45 17 -214 50 -242 47 -22 -3 -32 -17
-70 -105 -25 -57 -48 -103 -52 -103 -3 0 -27 46 -51 103 -44 100 -46 102 -80
104 -18 1 -72 -6 -119 -16z"/>
<path d="M1542 853 l538 -538 535 535 c294 294 530 536 523 538 -7 1 -248 -76
-535 -172 l-523 -174 -522 174 c-288 96 -530 174 -538 174 -8 0 227 -242 522
-537z"/>
</g>
</svg>
