<svg xmlns="http://www.w3.org/2000/svg" xmlns:xlink="http://www.w3.org/1999/xlink" id="Layer_1" width="48" height="48" x="0" y="0" enable-background="new 0 0 48 48" version="1.1" viewBox="0 0 48 48" xml:space="preserve"><path d="M40,17.684h-7.579v-3.368h-3.368v18.526h3.368v9.263h-16v-8.421h3.368V14.316h-3.368v3.368H8V5.895h32V17.684z M46.421,0	H1.789C1.053,0,0.421,0.947,0.421,1.684v44.632C0.421,47.158,1.053,48,1.789,48h44.632c0.842,0,1.158-0.842,1.158-1.684V1.684	C47.579,0.947,47.263,0,46.421,0z M14.737,15.158v-2.526h6.737v23.579h-2.526v4.211h10.947v-5.053h-3.368V11.789h7.579v3.368h3.368	V8.421H10.526v6.737H14.737z"/></svg>