<svg width="297" height="407" viewBox="0 0 297 407" fill="none" xmlns="http://www.w3.org/2000/svg">
<path d="M68.8682 260.561V239.144C65.4568 236.084 56.7819 225.07 49.3744 205.489C41.9669 185.908 39.7901 175.913 39.6276 173.364C38.653 164.525 35.1441 143.89 28.9062 132.06C21.1088 117.272 12.824 87.6963 21.1088 57.6107C27.7366 33.5422 55.3849 24.4655 68.3806 22.9358C81.0514 17.3266 113.118 5.08839 140.019 1.00899C173.646 -4.09026 217.506 11.2075 242.36 22.9358C267.214 34.6641 291.581 71.3787 295.967 84.1268C299.476 94.3253 293.206 113.193 289.632 121.351C283.134 132.74 268.677 157.352 262.828 164.695C256.98 172.038 248.371 189.171 244.797 196.82C243.335 202.429 239.924 216.197 237.974 226.396C236.025 236.594 228.715 249.343 225.303 254.442V270.759L250.492 277.909C273.397 284.028 295.967 293.196 295.967 308.505C295.967 323.813 262.828 333.491 238.949 350.308L231.151 353.877C231.964 356.937 233.101 366.013 231.151 377.844C229.202 389.674 220.592 397.731 216.531 400.28C212.795 402.83 200.937 407.725 183.392 406.909C165.848 406.094 152.04 393.651 147.329 387.532C139.922 396.915 132.222 401.64 129.298 402.83C119.876 406.06 96.7436 410.173 79.5893 400.79C62.435 391.408 60.7456 367.985 62.0452 357.447L8.43832 324.811C-7.93623 312.165 3.24005 298.465 10.875 293.196L68.8682 260.561Z" fill="white"/>
<path d="M115.258 357.125C92.4577 373.125 76.091 363.792 70.7577 357.125C67.1577 374.725 77.2577 385.458 82.7577 388.625C101.558 400.625 122.258 393.625 130.258 388.625C147.058 375.825 145.258 364.625 142.258 360.625C131.858 350.625 119.924 354.125 115.258 357.125Z" fill="black"/>
<path d="M166.193 338.388C155.393 351.858 144.408 343.746 139.866 337.518C139.799 337.425 139.653 337.504 139.687 337.613C142.909 347.903 148.211 350.5 150.5 350.5C160.165 351.273 165.004 343.078 166.371 338.466C166.401 338.361 166.261 338.304 166.193 338.388Z" fill="black"/>
<path d="M179.135 357.231C201.867 373.134 218.185 363.857 223.502 357.231C227.092 374.724 217.022 385.392 211.538 388.539C192.794 400.467 172.156 393.509 164.179 388.539C147.429 375.817 149.224 364.685 152.215 360.71C162.584 350.771 174.482 354.249 179.135 357.231Z" fill="black"/>
<path d="M123.5 309C123.5 316.098 118.784 320.5 114.5 320.5C110.216 320.5 105.5 316.098 105.5 309C105.5 301.902 110.216 297.5 114.5 297.5C118.784 297.5 123.5 301.902 123.5 309Z" stroke="black" stroke-width="9"/>
<path d="M194.5 309C194.5 316.098 189.784 320.5 185.5 320.5C181.216 320.5 176.5 316.098 176.5 309C176.5 301.902 181.216 297.5 185.5 297.5C189.784 297.5 194.5 301.902 194.5 309Z" stroke="black" stroke-width="9"/>
<path d="M31.2363 305.9C39.4287 300.291 54.9775 294.347 60.7855 289.194C60.9327 289.063 61.0631 288.916 61.172 288.752C64.7448 283.381 56.4397 279.53 52.5001 281.5L17.0009 300.5C10.1561 305.389 9.04749 310.278 13.2094 314.232C13.3991 314.412 13.6197 314.559 13.8537 314.677L47.9996 331.814C56.7065 337.246 60.6611 337.926 63.1393 337.13C63.3819 337.052 63.6048 336.925 63.8043 336.767C66.9033 334.301 70.2937 328.76 60.9996 324.5C52.8371 320.759 39.7586 314.343 31.7221 310.354C29.8879 309.443 29.5466 307.056 31.2363 305.9Z" fill="black" stroke="black"/>
<path d="M259.609 305.713C251.45 300.154 236.01 294.263 230.237 289.156C230.089 289.025 229.959 288.878 229.85 288.715C226.297 283.385 234.56 279.564 238.48 281.519L273.803 300.375C280.612 305.226 281.716 310.077 277.577 314.001C277.387 314.18 277.166 314.327 276.933 314.444L242.958 331.45C234.296 336.84 230.361 337.516 227.895 336.726C227.652 336.649 227.43 336.522 227.23 336.364C224.147 333.916 220.776 328.419 230.022 324.192C238.134 320.484 251.125 314.128 259.124 310.168C260.962 309.259 261.303 306.868 259.609 305.713Z" fill="black" stroke="black"/>
</svg>
