<svg width="40" height="41" viewBox="0 0 40 41" fill="none" xmlns="http://www.w3.org/2000/svg">
<path d="M20.0001 0C8.95576 0 0 9.41035 0 21.0189C0 30.3058 5.73062 38.1846 13.6773 40.9639C14.6768 41.1584 15.0439 40.5079 15.0439 39.9527C15.0439 39.4516 15.0252 37.7957 15.0167 36.0394C9.45253 37.3109 8.27845 33.5594 8.27845 33.5594C7.36868 31.1299 6.05783 30.484 6.05783 30.484C4.2433 29.1794 6.19461 29.2061 6.19461 29.2061C8.203 29.3545 9.26054 31.3722 9.26054 31.3722C11.0443 34.5856 13.9393 33.6565 15.0806 33.1196C15.26 31.7609 15.7784 30.8338 16.3503 30.309C11.9081 29.7773 7.23818 27.975 7.23818 19.9212C7.23818 17.6265 8.01948 15.7514 9.29897 14.2795C9.09129 13.75 8.40676 11.6122 9.49269 8.717C9.49269 8.717 11.1722 8.15206 14.9941 10.8716C16.5894 10.4057 18.3004 10.1723 20.0001 10.1644C21.6998 10.1723 23.412 10.4057 25.0104 10.8716C28.8278 8.15206 30.505 8.717 30.505 8.717C31.5936 11.6122 30.9087 13.75 30.701 14.2795C31.9833 15.7514 32.7593 17.6264 32.7593 19.9212C32.7593 27.9942 28.0806 29.7719 23.6271 30.2921C24.3444 30.9444 24.9836 32.2237 24.9836 34.1845C24.9836 36.9968 24.9604 39.2604 24.9604 39.9527C24.9604 40.5121 25.3204 41.1675 26.3343 40.9611C34.2766 38.1786 40 30.3027 40 21.0189C40 9.41035 31.0455 0 20.0001 0Z" fill="white"/>
</svg>
